<?xml version="1.0" encoding="UTF-8"?>
<svg width="2188px" height="2188px" viewBox="0 0 2188 2188" version="1.1" xmlns="http://www.w3.org/2000/svg" xmlns:xlink="http://www.w3.org/1999/xlink">
    <!-- Generator: Sketch 51.3 (57544) - http://www.bohemiancoding.com/sketch -->
    <title>Group 2</title>
    <desc>Created with Sketch.</desc>
    <defs></defs>
    <g id="Page-1" stroke="none" stroke-width="1" fill="none" fill-rule="evenodd">
        <g id="Artboard-2" transform="translate(-5512.000000, -1288.000000)">
            <g id="Group-2" transform="translate(5512.000000, 1288.000000)">
                <circle id="Oval-6" fill="#E0E5FF" cx="1094" cy="1094" r="1094"></circle>
                <g id="bar-chart" transform="translate(448.000000, 419.000000)" fill-rule="nonzero">
                    <path d="M263.634257,733.188216 C253.136307,728.825674 241.0472,731.223226 233.004479,739.26518 L140.501339,831.938871 L47.9955643,739.26518 C37.0366002,728.263872 19.2440899,728.242771 8.25614777,739.215066 C2.95843702,744.506033 -0.0131282286,751.693414 4.36031673e-05,759.184115 L4.36031673e-05,1321.86503 C4.36031673e-05,1337.40296 12.5817773,1350 28.1008296,1350 L252.899214,1350 C268.418266,1350 281,1337.40296 281,1321.86503 L281,759.184115 C281,747.800359 274.142744,737.537571 263.634257,733.188216 Z" id="Shape" fill="#768AEE"></path>
                    <path d="M498.39603,514.236681 C487.423894,503.25444 469.636652,503.25444 458.661882,514.236681 L346.261373,626.767728 C340.9742,632.045217 338.002634,639.211103 338,646.685568 L338,1321.86658 C338,1337.40365 350.581734,1350 366.100786,1350 L590.89917,1350 C606.418222,1350 618.999956,1337.40365 618.999956,1321.86658 L618.999956,646.685568 C619.013128,639.219016 616.062638,632.05313 610.793905,626.767728 L498.39603,514.236681 Z" id="Shape" fill="#5E60F0"></path>
                    <path d="M834.39603,402.232108 C823.423894,391.255964 805.636652,391.255964 794.661882,402.232108 L682.261373,514.70068 C676.9742,519.97524 674.002634,527.137147 674,534.607462 L674,1321.8822 C674,1337.41065 686.581734,1350 702.100786,1350 L926.89917,1350 C942.418222,1350 954.999956,1337.41065 954.999956,1321.8822 L954.999956,534.607462 C955.013128,527.145055 952.062638,519.983147 946.793905,514.70068 L834.39603,402.232108 Z" id="Shape" fill="#4521F3"></path>
                    <path d="M1284.79654,345.477514 L1228.59761,289.21533 C1223.31834,283.943305 1216.16077,280.986857 1208.70288,281.000044 L1152.50132,281.000044 C1145.04343,280.986857 1137.88585,283.940668 1132.60659,289.21533 L1020.20609,401.742335 C1014.94,407.027547 1011.98687,414.193176 1012.00004,421.65946 L1012.00004,1321.86759 C1012.00004,1337.40411 1024.58178,1350 1040.10083,1350 L1264.89917,1350 C1280.41822,1350 1292.99996,1337.40411 1292.99996,1321.86759 L1292.99996,365.394639 C1293.01313,357.928354 1290.06264,350.762726 1284.79654,345.477514 Z" id="Shape" fill="#5536ED"></path>
                    <path d="M1264.88237,5.00695029e-05 L1096.18183,5.00695029e-05 C1080.65347,-0.0289453129 1068.0431,12.539235 1068.01411,28.0675802 C1068.00093,35.5536608 1070.97428,42.7366078 1076.27516,48.0243112 L1140.77412,112.467867 L927.481289,325.760535 L834.920049,233.144012 C823.941334,222.167942 806.143428,222.167942 795.162077,233.144012 L590.077578,438.228352 L497.516338,345.611829 C486.537623,334.635758 468.739716,334.635758 457.758366,345.611829 L140.211234,663.161349 L47.6499941,570.544826 C36.4814913,559.755907 18.6809486,560.066949 7.89202203,571.235443 C-2.63067401,582.132435 -2.63067401,599.405775 7.89202203,610.300131 L120.359926,722.767947 C131.338641,733.744018 149.136547,733.744018 160.117898,722.767947 L477.61231,405.273782 L570.17355,497.83495 C581.152265,508.811021 598.950172,508.811021 609.931522,497.83495 L815.013386,292.808601 L907.574626,385.36977 C918.553341,396.34584 936.351247,396.34584 947.332598,385.36977 L1180.5321,152.225808 L1244.9757,216.669363 C1250.25023,221.959702 1257.41209,224.933047 1264.88237,224.935683 C1268.57005,224.943591 1272.22084,224.21607 1275.62384,222.797933 C1286.13863,218.451261 1292.99736,208.19744 1293,196.81807 L1293,28.1176632 C1292.99736,12.5893179 1280.41072,5.00695029e-05 1264.88237,5.00695029e-05 Z" id="Shape" fill="#455A64"></path>
                </g>
            </g>
        </g>
    </g>
</svg>