<svg id="svg" xmlns="http://www.w3.org/2000/svg" xmlns:xlink="http://www.w3.org/1999/xlink" width="400" height="400" viewBox="0, 0, 400,400"><g id="svgg"><path id="path0" d="M262.891 137.300 C 237.158 143.071,209.540 180.062,201.786 219.141 C 199.764 229.332,198.666 247.782,199.754 253.276 L 200.055 254.794 206.375 254.524 C 230.588 253.489,256.595 247.097,268.164 239.338 C 285.758 227.538,300.215 200.877,302.320 176.347 C 304.343 152.767,283.955 132.576,262.891 137.300 M77.470 176.421 C 72.427 178.208,69.684 183.492,68.767 193.190 C 66.542 216.709,83.911 245.433,107.813 257.758 C 129.575 268.981,156.562 269.540,169.884 259.045 L 170.822 258.305 168.944 254.836 C 162.321 242.601,148.781 222.193,139.821 210.938 C 124.124 191.220,89.616 172.117,77.470 176.421 " stroke="none" fill="#2f2f30" fill-rule="evenodd"></path><path id="path1" d="M197.461 41.824 C 154.093 43.384,116.960 53.902,88.900 72.573 L 83.854 75.930 80.443 82.997 C 44.310 157.858,49.673 216.674,99.357 290.417 C 134.608 342.739,185.548 380.561,219.507 379.627 C 229.491 379.353,241.123 370.647,259.226 349.902 C 261.523 347.270,263.713 344.814,264.095 344.444 C 276.423 332.479,304.101 288.427,316.193 261.523 C 328.938 233.168,339.772 192.993,338.474 178.906 C 338.404 178.154,338.241 175.518,338.110 173.047 C 336.864 149.506,327.068 119.030,314.063 98.235 C 288.945 58.072,251.351 39.885,197.461 41.824 M276.741 137.496 C 291.646 141.308,302.579 156.225,302.511 172.656 C 302.412 196.214,287.783 225.594,269.727 238.495 C 257.878 246.960,230.991 253.939,207.775 254.575 L 199.730 254.795 199.475 252.929 C 196.638 232.236,204.089 200.368,216.842 178.653 C 234.784 148.098,257.410 132.552,276.741 137.496 M339.570 145.313 C 339.570 146.494,339.643 146.978,339.733 146.387 C 339.822 145.796,339.822 144.829,339.733 144.238 C 339.643 143.647,339.570 144.131,339.570 145.313 M339.574 159.961 C 339.576 161.250,339.649 161.730,339.736 161.028 C 339.823 160.326,339.821 159.271,339.732 158.684 C 339.643 158.097,339.572 158.672,339.574 159.961 M339.153 169.531 C 339.153 170.283,339.234 170.591,339.332 170.215 C 339.430 169.839,339.430 169.224,339.332 168.848 C 339.234 168.472,339.153 168.779,339.153 169.531 M89.987 176.565 C 108.072 182.220,130.826 198.513,142.626 214.258 C 154.536 230.149,170.703 255.478,170.703 258.245 C 170.703 260.349,158.910 265.298,151.212 266.424 C 110.871 272.323,68.503 236.763,68.580 197.070 C 68.615 178.987,75.781 172.122,89.987 176.565 M179.458 280.226 C 181.238 289.714,191.261 292.894,201.097 287.090 C 203.008 285.963,202.989 286.287,200.986 289.007 C 197.180 294.178,192.486 296.538,185.547 296.772 C 175.796 297.101,172.886 291.298,177.569 280.863 C 178.709 278.322,179.077 278.198,179.458 280.226 M211.133 323.241 C 214.496 323.944,218.792 326.065,221.269 328.245 L 223.130 329.883 212.639 329.909 C 201.626 329.936,195.824 330.463,189.129 332.044 C 184.960 333.029,184.985 333.032,185.818 331.597 C 189.362 325.494,201.981 321.328,211.133 323.241 M268.894 375.290 C 262.590 383.162,255.139 390.676,247.744 396.620 L 244.511 399.219 248.255 399.219 C 250.652 399.219,251.912 399.359,251.758 399.609 C 251.599 399.867,256.311 400.000,265.602 400.000 C 274.732 400.000,279.688 399.863,279.688 399.609 C 279.688 399.395,280.127 399.219,280.664 399.219 C 281.915 399.219,282.083 399.934,278.752 391.078 C 277.164 386.854,275.027 380.938,274.003 377.930 C 272.980 374.922,272.028 372.328,271.888 372.165 C 271.748 372.002,270.401 373.408,268.894 375.290 M205.859 398.216 C 205.859 399.110,206.014 399.219,207.292 399.219 C 208.079 399.219,208.651 399.162,208.561 399.092 C 208.472 399.023,207.827 398.571,207.129 398.089 L 205.859 397.212 205.859 398.216 " stroke="none" fill="#aaaae2" fill-rule="evenodd"></path><path id="path2" d="M177.797 280.799 C 175.939 285.119,175.269 290.000,176.197 292.455 C 178.593 298.799,191.533 298.234,198.571 291.479 C 200.071 290.040,202.759 286.469,202.104 286.786 C 193.367 291.017,187.572 291.400,183.611 288.010 C 182.118 286.732,179.304 281.849,179.291 280.514 C 179.275 278.800,178.602 278.929,177.797 280.799 M198.836 323.836 C 193.353 325.307,188.428 328.111,186.538 330.839 C 185.171 332.811,185.191 332.823,188.379 332.013 C 194.972 330.339,199.696 329.909,211.648 329.895 L 223.101 329.883 221.642 328.656 C 215.580 323.562,206.787 321.703,198.836 323.836 " stroke="none" fill="#747495" fill-rule="evenodd"></path><path id="path3" d="M185.938 22.364 C 185.830 22.469,183.782 22.664,181.387 22.798 C 178.992 22.932,176.795 23.118,176.504 23.213 C 176.214 23.307,174.922 23.485,173.633 23.608 C 172.344 23.732,170.916 23.905,170.460 23.994 C 170.003 24.082,168.949 24.261,168.116 24.391 C 153.347 26.694,134.333 33.552,120.313 41.631 C 115.928 44.158,106.849 50.267,104.462 52.298 C 103.801 52.860,102.577 53.848,101.742 54.492 C 95.589 59.241,88.149 66.893,86.878 69.781 C 86.324 71.040,85.449 72.914,84.934 73.945 C 84.419 74.976,84.214 75.690,84.479 75.533 C 84.744 75.375,86.279 74.336,87.891 73.222 C 131.612 43.011,211.223 32.332,257.813 50.428 C 302.314 67.713,334.417 116.972,338.232 173.828 C 338.427 176.740,338.605 177.923,338.672 176.758 C 338.735 175.684,338.840 174.102,338.906 173.242 C 339.843 161.099,339.818 143.550,338.850 133.398 C 338.727 132.109,338.568 130.264,338.496 129.297 C 338.424 128.330,338.325 127.539,338.275 127.539 C 338.226 127.539,338.137 126.836,338.079 125.977 C 338.021 125.117,337.933 124.370,337.883 124.316 C 337.834 124.263,337.749 123.691,337.695 123.047 C 337.642 122.402,337.561 121.831,337.517 121.777 C 337.473 121.724,337.385 121.240,337.322 120.703 C 337.030 118.214,336.683 116.364,336.337 115.453 C 336.129 114.907,336.061 114.195,336.186 113.871 C 336.310 113.546,336.234 113.281,336.016 113.281 C 335.798 113.281,335.707 112.950,335.813 112.544 C 335.919 112.139,335.822 111.694,335.598 111.555 C 335.374 111.416,335.272 111.089,335.371 110.827 C 335.471 110.566,335.097 108.770,334.541 106.836 C 333.984 104.902,333.436 102.925,333.321 102.441 C 333.206 101.958,333.001 101.562,332.865 101.562 C 332.729 101.562,332.590 101.100,332.558 100.535 C 332.525 99.970,332.296 99.382,332.049 99.230 C 331.802 99.077,331.637 98.792,331.684 98.597 C 331.805 98.091,331.231 96.069,330.642 94.922 C 329.968 93.611,329.550 92.447,329.625 92.090 C 329.660 91.929,329.512 91.797,329.297 91.797 C 329.082 91.797,328.906 91.531,328.906 91.206 C 328.906 90.880,328.739 90.309,328.536 89.936 C 328.332 89.563,327.694 88.163,327.119 86.824 C 326.543 85.486,325.948 84.467,325.796 84.561 C 325.645 84.655,325.521 84.510,325.521 84.239 C 325.521 83.495,320.662 75.468,319.430 74.177 C 318.838 73.555,318.486 73.042,318.649 73.035 C 318.812 73.028,318.638 72.844,318.262 72.625 C 317.886 72.406,317.578 72.036,317.578 71.803 C 317.578 71.569,317.130 70.963,316.581 70.455 C 316.033 69.947,315.716 69.531,315.877 69.531 C 316.037 69.531,315.497 68.916,314.676 68.164 C 313.855 67.412,313.323 66.797,313.495 66.797 C 313.667 66.797,311.948 64.995,309.675 62.793 C 304.179 57.466,303.250 56.641,302.759 56.641 C 302.531 56.641,302.344 56.479,302.344 56.281 C 302.344 55.754,295.448 50.781,294.717 50.781 C 294.375 50.781,294.188 50.630,294.302 50.446 C 294.415 50.262,293.720 49.706,292.757 49.210 C 291.793 48.715,290.810 48.074,290.572 47.787 C 290.334 47.500,289.823 47.266,289.438 47.266 C 289.052 47.266,288.678 47.107,288.607 46.913 C 288.358 46.241,282.393 43.110,274.496 39.507 C 269.324 37.147,257.934 33.025,252.254 31.457 C 248.123 30.317,238.426 27.828,236.523 27.419 C 235.449 27.188,233.428 26.729,232.031 26.399 C 229.780 25.867,222.930 24.652,218.555 24.008 C 217.695 23.882,216.588 23.712,216.095 23.630 C 215.601 23.549,214.019 23.369,212.579 23.230 C 211.139 23.092,209.434 22.902,208.789 22.808 C 207.016 22.551,186.162 22.146,185.938 22.364 M268.066 136.608 C 268.657 136.697,269.624 136.697,270.215 136.608 C 270.806 136.518,270.322 136.445,269.141 136.445 C 267.959 136.445,267.476 136.518,268.066 136.608 M235.916 153.418 L 234.570 154.883 236.035 153.537 C 237.399 152.284,237.680 151.953,237.381 151.953 C 237.316 151.953,236.657 152.612,235.916 153.418 M182.031 286.450 C 182.031 286.518,182.603 287.089,183.301 287.720 L 184.570 288.867 183.423 287.598 C 182.354 286.414,182.031 286.149,182.031 286.450 M175.489 289.258 C 175.493 290.117,175.573 290.423,175.667 289.937 C 175.760 289.451,175.757 288.748,175.659 288.374 C 175.561 288.001,175.485 288.398,175.489 289.258 M198.807 291.309 L 197.461 292.773 198.926 291.427 C 200.289 290.174,200.570 289.844,200.272 289.844 C 200.207 289.844,199.547 290.503,198.807 291.309 M204.600 322.943 C 205.519 323.025,206.925 323.024,207.725 322.940 C 208.525 322.856,207.773 322.789,206.055 322.790 C 204.336 322.792,203.681 322.860,204.600 322.943 M203.619 329.968 C 204.212 330.058,205.091 330.055,205.572 329.962 C 206.052 329.870,205.566 329.796,204.492 329.799 C 203.418 329.802,203.025 329.878,203.619 329.968 M219.824 329.963 C 220.308 330.056,221.099 330.056,221.582 329.963 C 222.065 329.870,221.670 329.794,220.703 329.794 C 219.736 329.794,219.341 329.870,219.824 329.963 M259.908 349.138 C 247.607 363.363,235.589 374.104,227.734 377.891 C 222.454 380.438,213.230 380.306,204.085 377.554 C 201.654 376.822,201.732 376.549,202.901 381.702 C 203.453 384.139,204.301 388.580,204.785 391.571 L 205.664 397.010 207.188 398.114 L 208.711 399.219 206.895 399.219 C 205.896 399.219,205.078 399.395,205.078 399.609 C 205.078 399.865,213.078 400.000,228.297 400.000 C 243.355 400.000,251.601 399.863,251.758 399.609 C 251.912 399.359,250.652 399.219,248.255 399.219 L 244.511 399.219 247.744 396.620 C 255.166 390.654,262.471 383.282,268.979 375.191 L 271.847 371.626 269.579 364.231 C 268.331 360.164,266.639 354.199,265.818 350.977 C 264.998 347.754,264.222 344.993,264.094 344.841 C 263.966 344.689,262.082 346.623,259.908 349.138 " stroke="none" fill="#8c8cbc" fill-rule="evenodd"></path><path id="path4" d="M81.744 175.671 C 82.337 175.761,83.216 175.758,83.697 175.666 C 84.177 175.573,83.691 175.499,82.617 175.502 C 81.543 175.505,81.150 175.581,81.744 175.671 M133.577 204.004 C 135.196 205.729,135.547 206.039,135.547 205.745 C 135.547 205.683,134.712 204.848,133.691 203.890 L 131.836 202.148 133.577 204.004 M199.309 238.281 C 199.309 239.033,199.390 239.341,199.488 238.965 C 199.586 238.589,199.586 237.974,199.488 237.598 C 199.390 237.222,199.309 237.529,199.309 238.281 M90.039 244.922 C 90.878 245.781,91.653 246.484,91.760 246.484 C 91.868 246.484,91.269 245.781,90.430 244.922 C 89.591 244.062,88.816 243.359,88.709 243.359 C 88.601 243.359,89.200 244.062,90.039 244.922 M199.309 248.828 C 199.309 249.580,199.390 249.888,199.488 249.512 C 199.586 249.136,199.586 248.521,199.488 248.145 C 199.390 247.769,199.309 248.076,199.309 248.828 M207.520 254.566 C 207.896 254.664,208.511 254.664,208.887 254.566 C 209.263 254.468,208.955 254.388,208.203 254.388 C 207.451 254.388,207.144 254.468,207.520 254.566 " stroke="none" fill="#646483" fill-rule="evenodd"></path></g></svg>