<?xml version="1.0" encoding="UTF-8"?>
<svg width="283px" height="358px" viewBox="0 0 283 358" version="1.1" xmlns="http://www.w3.org/2000/svg" xmlns:xlink="http://www.w3.org/1999/xlink">
    <!-- Generator: Sketch 51.3 (57544) - http://www.bohemiancoding.com/sketch -->
    <title>collab</title>
    <desc>Created with Sketch.</desc>
    <defs></defs>
    <g id="Page-1" stroke="none" stroke-width="1" fill="none" fill-rule="evenodd">
        <g id="Artboard-3" transform="translate(-44.000000, -8.000000)">
            <g id="collab" transform="translate(44.000000, 8.000000)">
                <path d="M140.461,19.824 C97.093,21.384 59.96,31.902 31.9,50.573 L26.854,53.93 L23.443,60.997 C-12.69,135.858 -7.327,194.674 42.357,268.417 C77.608,320.739 128.548,358.561 162.507,357.627 C172.491,357.353 184.123,348.647 202.226,327.902 C204.523,325.27 206.713,322.814 207.095,322.444 C219.423,310.479 247.101,266.427 259.193,239.523 C271.938,211.168 282.772,170.993 281.474,156.906 C281.404,156.154 281.241,153.518 281.11,151.047 C279.864,127.506 270.068,97.03 257.063,76.235 C231.945,36.072 194.351,17.885 140.461,19.824 M219.741,115.496 C234.646,119.308 245.579,134.225 245.511,150.656 C245.412,174.214 230.783,203.594 212.727,216.495 C200.878,224.96 173.991,231.939 150.775,232.575 L142.73,232.795 L142.475,230.929 C139.638,210.236 147.089,178.368 159.842,156.653 C177.784,126.098 200.41,110.552 219.741,115.496 M282.57,123.313 C282.57,124.494 282.643,124.978 282.733,124.387 C282.822,123.796 282.822,122.829 282.733,122.238 C282.643,121.647 282.57,122.131 282.57,123.313 M282.574,137.961 C282.576,139.25 282.649,139.73 282.736,139.028 C282.823,138.326 282.821,137.271 282.732,136.684 C282.643,136.097 282.572,136.672 282.574,137.961 M282.153,147.531 C282.153,148.283 282.234,148.591 282.332,148.215 C282.43,147.839 282.43,147.224 282.332,146.848 C282.234,146.472 282.153,146.779 282.153,147.531 M32.987,154.565 C51.072,160.22 73.826,176.513 85.626,192.258 C97.536,208.149 113.703,233.478 113.703,236.245 C113.703,238.349 101.91,243.298 94.212,244.424 C53.871,250.323 11.503,214.763 11.58,175.07 C11.615,156.987 18.781,150.122 32.987,154.565 M122.458,258.226 C124.238,267.714 134.261,270.894 144.097,265.09 C146.008,263.963 145.989,264.287 143.986,267.007 C140.18,272.178 135.486,274.538 128.547,274.772 C118.796,275.101 115.886,269.298 120.569,258.863 C121.709,256.322 122.077,256.198 122.458,258.226 M154.133,301.241 C157.496,301.944 161.792,304.065 164.269,306.245 L166.13,307.883 L155.639,307.909 C144.626,307.936 138.824,308.463 132.129,310.044 C127.96,311.029 127.985,311.032 128.818,309.597 C132.362,303.494 144.981,299.328 154.133,301.241" id="path1" fill="#FFFFFF"></path>
                <path d="M124.387,0.798 C121.992,0.932 119.795,1.118 119.504,1.213 C119.214,1.307 117.922,1.485 116.633,1.608 C115.344,1.732 113.916,1.905 113.46,1.994 C113.003,2.082 111.949,2.261 111.116,2.391 C96.347,4.694 77.333,11.552 63.313,19.631 C58.928,22.158 49.849,28.267 47.462,30.298 C46.801,30.86 45.577,31.848 44.742,32.492 C38.589,37.241 31.149,44.893 29.878,47.781 C28.607,50.669 28.449,50.914 27.934,51.945 C27.419,52.976 27.214,53.69 27.479,53.533 C27.744,53.375 29.279,52.336 30.891,51.222 C74.612,21.011 154.223,10.332 200.813,28.428 C245.314,45.713 277.417,94.972 281.232,151.828 C281.427,154.74 281.605,155.923 281.672,154.758 C281.735,153.684 281.84,152.102 281.906,151.242 C282.843,139.099 282.818,121.55 281.85,111.398 C281.727,110.109 281.568,108.264 281.496,107.297 C281.424,106.33 281.325,105.539 281.275,105.539 C281.226,105.539 281.137,104.836 281.079,103.977 C281.021,103.117 280.933,102.37 280.883,102.316 C280.834,102.263 280.749,101.691 280.695,101.047 C280.642,100.402 280.561,99.831 280.517,99.777 C280.473,99.724 280.385,99.24 280.322,98.703 C280.03,96.214 279.683,94.364 279.337,93.453 C279.129,92.907 279.061,92.195 279.186,91.871 C279.31,91.546 279.234,91.281 279.016,91.281 C278.798,91.281 278.707,90.95 278.813,90.544 C278.919,90.139 278.822,89.694 278.598,89.555 C278.374,89.416 278.272,89.089 278.371,88.827 C278.471,88.566 278.097,86.77 277.541,84.836 C276.984,82.902 276.436,80.925 276.321,80.441 C276.206,79.958 276.001,79.562 275.865,79.562 C275.729,79.562 275.59,79.1 275.558,78.535 C275.525,77.97 275.296,77.382 275.049,77.23 C274.802,77.077 274.637,76.792 274.684,76.597 C274.805,76.091 274.231,74.069 273.642,72.922 C272.968,71.611 272.55,70.447 272.625,70.09 C272.082,69.797 271.906,69.531 271.906,69.206 C271.906,68.88 271.739,68.309 271.536,67.936 C271.332,67.563 270.694,66.163 270.119,64.824 C269.543,63.486 268.948,62.467 268.796,62.561 C268.521,61.495 263.662,53.468 262.43,52.177 C261.838,51.555 261.486,51.042 261.649,51.035 C261.812,51.028 261.638,50.844 261.262,50.625 C260.886,50.406 260.578,50.036 260.578,49.803 C260.578,49.569 260.13,48.963 259.581,48.455 C259.033,47.947 258.716,47.531 258.877,47.531 C259.037,47.531 258.497,46.916 257.676,46.164 C256.855,45.412 256.323,44.797 256.495,44.797 C256.667,44.797 254.948,42.995 252.675,40.793 C247.179,35.466 246.25,34.641 245.759,34.641 C245.344,33.754 238.448,28.781 237.717,28.781 C237.415,28.262 236.72,27.706 235.757,27.21 C234.793,26.715 233.81,26.074 233.572,25.787 C233.334,25.5 232.823,25.266 232.438,25.266 C232.052,25.266 231.678,25.107 231.607,24.913 C231.358,24.241 225.393,21.11 217.496,17.507 C212.324,15.147 200.934,11.025 195.254,9.457 C191.123,8.317 181.426,5.828 179.523,5.419 C178.449,5.188 176.428,4.729 175.031,4.399 C172.78,3.867 165.93,2.652 161.555,2.008 C160.695,1.882 159.588,1.712 159.095,1.63 C158.601,1.549 157.019,1.369 155.579,1.23 C154.139,1.092 152.434,0.902 151.789,0.808 C150.016,0.551 129.162,0.146 128.938,0.364 C128.83,0.469 126.782,0.664 124.387,0.798 Z M211.066,114.608 C211.657,114.697 212.624,114.697 213.215,114.608 C213.806,114.518 213.322,114.445 212.141,114.445 C210.959,114.445 210.476,114.518 211.066,114.608 M178.916,131.418 L177.57,132.883 L179.035,131.537 C180.399,130.284 180.68,129.953 180.381,129.953 C180.316,129.953 179.657,130.612 178.916,131.418 M125.031,264.45 C125.031,264.518 125.603,265.089 126.301,265.72 L127.57,266.867 L126.423,265.598 C125.354,264.414 125.031,264.149 125.031,264.45 M118.489,267.258 C118.493,268.117 118.573,268.423 118.667,267.937 C118.76,267.451 118.757,266.748 118.659,266.374 C118.561,266.001 118.485,266.398 118.489,267.258 M141.807,269.309 L140.461,270.773 L141.926,269.427 C143.289,268.174 143.57,267.844 143.272,267.844 C143.207,267.844 142.547,268.503 141.807,269.309 M147.6,300.943 C148.519,301.025 149.925,301.024 150.725,300.94 C151.525,300.856 150.773,300.789 149.055,300.79 C147.336,300.792 146.681,300.86 147.6,300.943 M146.619,307.968 C147.212,308.058 148.091,308.055 148.572,307.962 C149.052,307.87 148.566,307.796 147.492,307.799 C146.418,307.802 146.025,307.878 146.619,307.968 M162.824,307.963 C163.308,308.056 164.099,308.056 164.582,307.963 C165.065,307.87 164.67,307.794 163.703,307.794 C162.736,307.794 162.341,307.87 162.824,307.963" id="path3" fill="#FFFFFF"></path>
                <path d="M24.744,153.671 C25.337,153.761 26.216,153.758 26.697,153.666 C27.177,153.573 26.691,153.499 25.617,153.502 C24.543,153.505 24.15,153.581 24.744,153.671 M76.577,182.004 C78.196,183.729 78.547,184.039 78.547,183.745 C78.547,183.683 77.712,182.848 76.691,181.89 L74.836,180.148 L76.577,182.004 M142.309,216.281 C142.309,217.033 142.39,217.341 142.488,216.965 C142.586,216.589 142.586,215.974 142.488,215.598 C142.39,215.222 142.309,215.529 142.309,216.281 M33.039,222.922 C33.878,223.781 34.653,224.484 34.76,224.484 C34.868,224.484 34.269,223.781 33.43,222.922 C32.591,222.062 31.816,221.359 31.709,221.359 C31.601,221.359 32.2,222.062 33.039,222.922 M142.309,226.828 C142.309,227.58 142.39,227.888 142.488,227.512 C142.586,227.136 142.586,226.521 142.488,226.145 C142.39,225.769 142.309,226.076 142.309,226.828 M150.52,232.566 C150.896,232.664 151.511,232.664 151.887,232.566 C152.263,232.468 151.955,232.388 151.203,232.388 C150.451,232.388 150.144,232.468 150.52,232.566" id="path4" fill="#646483"></path>
                <path d="M32.5919013,64.4507264 C45.3986923,86.0885587 124.084144,56.3131771 205.12871,77.2247669 C225.990654,82.6076868 249.670128,107.056409 276.167131,150.570934 C281.434234,111.707295 278.578237,83.0005593 267.599141,64.4507264 C256.620045,45.9008934 233.666421,28.0179338 198.738268,10.8018475 C172.853599,3.64167158 152.725703,0.907315995 138.354582,2.59878074 C64.4115828,11.3017883 18.8471702,41.2281887 32.5919013,64.4507264 Z" id="Path-2" fill="#FFFFFF"></path>
            </g>
        </g>
    </g>
</svg>