<?xml version="1.0" encoding="UTF-8"?>
<svg width="2188px" height="2188px" viewBox="0 0 2188 2188" version="1.1" xmlns="http://www.w3.org/2000/svg" xmlns:xlink="http://www.w3.org/1999/xlink">
    <!-- Generator: Sketch 51.3 (57544) - http://www.bohemiancoding.com/sketch -->
    <title>Group 3</title>
    <desc>Created with Sketch.</desc>
    <defs></defs>
    <g id="Page-1" stroke="none" stroke-width="1" fill="none" fill-rule="evenodd">
        <g id="Artboard-2" transform="translate(-8762.000000, -1347.000000)">
            <g id="Group-3" transform="translate(8762.000000, 1347.000000)">
                <circle id="Oval-6" fill="#E0E5FF" cx="1094" cy="1094" r="1094"></circle>
                <g id="multiple-users-silhouette" transform="translate(387.000000, 500.000000)" fill-rule="nonzero">
                    <path d="M853,203.873378 C918.445433,244.792495 964.336724,314.036166 972.691836,394.412373 C999.382268,406.848402 1029.00494,414 1060.41168,414 C1175.06925,414 1268,321.328681 1268,207.008807 C1268,92.6713186 1175.06925,0 1060.41168,0 C946.849281,0.0352295452 854.73108,91.0507595 853,203.873378 Z" id="Path" fill="#768AEE"></path>
                    <path d="M717.517655,628 C832.116694,628 925,535.311067 925,420.991193 C925,306.671319 832.099039,214 717.517655,214 C602.936272,214 510,306.688933 510,421.008807 C510,535.328681 602.936272,628 717.517655,628 Z" id="Path" fill="#5536ED"></path>
                    <path d="M805.515427,642 L629.537497,642 C483.118635,642 364,761.137856 364,907.558653 L364,1122.76916 L364.547063,1126.13982 L379.370716,1130.7811 C519.101287,1174.44086 640.496411,1189 740.414887,1189 C935.57533,1189 1048.69391,1133.35763 1055.66456,1129.81049 L1069.51762,1122.80446 L1070.99998,907.558653 C1071.05292,761.137856 951.934289,642 805.515427,642 Z" id="Path" fill="#5536ED"></path>
                    <path d="M1148.49138,429 L973.879671,429 C971.9915,498.828595 942.168984,561.707843 895,606.931516 C1025.14263,645.611513 1120.36293,766.237369 1120.36293,908.71663 L1120.36293,975 C1292.76883,968.685618 1392.11839,919.846169 1398.66523,916.565512 L1412.5177,909.545613 L1414,909.545613 L1414,694.380411 C1414,548.05608 1294.8864,429 1148.49138,429 Z" id="Path" fill="#768AEE"></path>
                    <path d="M353.517658,414 C394.113565,414 431.88418,402.179985 463.880606,382.045443 C474.051655,315.863926 509.615011,258.032167 560.417284,218.64386 C560.62918,214.768445 561,210.928261 561,207.017616 C561,92.6752617 468.083227,2.84217094e-14 353.517658,2.84217094e-14 C238.881457,2.84217094e-14 146,92.6752617 146,207.017616 C146,321.307123 238.881457,414 353.517658,414 Z" id="Path" fill="#768AEE"></path>
                    <path d="M540,607.036981 C493.041943,562.015932 463.313609,499.434733 461.142241,429.98831 C454.663441,429.511803 448.255255,429 441.652882,429 L265.630782,429 C119.160483,429 0,548.126647 0,694.537709 L0,909.795149 L0.547255549,913.113047 L15.3761156,917.789871 C127.510543,952.786633 227.587695,968.917263 314.51306,974 L314.51306,909.000971 C314.548367,766.437259 409.770833,645.775202 540,607.036981 Z" id="Path" fill="#768AEE"></path>
                </g>
            </g>
        </g>
    </g>
</svg>