<?xml version="1.0" encoding="UTF-8"?>
<svg width="2188px" height="2188px" viewBox="0 0 2188 2188" version="1.1" xmlns="http://www.w3.org/2000/svg" xmlns:xlink="http://www.w3.org/1999/xlink">
    <!-- Generator: Sketch 51.3 (57544) - http://www.bohemiancoding.com/sketch -->
    <title>Group</title>
    <desc>Created with Sketch.</desc>
    <defs></defs>
    <g id="Page-1" stroke="none" stroke-width="1" fill="none" fill-rule="evenodd">
        <g id="Artboard-2" transform="translate(-2104.000000, -1219.000000)">
            <g id="Group" transform="translate(2104.000000, 1219.000000)">
                <circle id="Oval-6" fill="#E0E5FF" cx="1094" cy="1094" r="1094"></circle>
                <g id="headphones" transform="translate(290.000000, 339.000000)" fill-rule="nonzero">
                    <path d="M805,0 C416.544601,0 101,315.730432 101,704.421725 L101,956 L176.429255,956 L176.429255,713.227236 C176.429255,361.016374 458.030532,75.4744407 805,75.4744407 C1151.96947,75.4744407 1433.57074,361.016374 1433.57074,713.227236 L1433.57074,956 L1509,956 L1509,704.421725 C1508.99681,315.730432 1193.4554,0 805,0 Z" id="Shape" stroke="#525354" stroke-width="30" fill="#525354"></path>
                    <path d="M256.435133,880 C114.389634,880 0,993.17484 0,1131.5 C0,1269.82516 114.389634,1383 256.435133,1383 C341.914575,1383 326.827527,1131.5 326.827527,1131.5 C326.827527,1131.5 341.911383,880 256.435133,880 Z M1343.76542,880 C1257.03165,880 1270.85799,1131.5 1270.85799,1131.5 C1270.85799,1131.5 1253.25909,1383 1343.76542,1383 C1490.83781,1383 1609,1269.82516 1609,1131.5 C1609,993.17484 1489.58029,880 1343.76542,880 Z" id="Shape" fill="#5759CF"></path>
                    <path d="M1343.89445,1383 C1384.10968,1383 1423.0677,1374.19728 1457,1357.84984 L1457,905.15016 C1423.0677,890.060702 1384.10968,880 1343.89445,880 L1343.89445,1383 Z M150,1360.36262 C182.67508,1374.19409 217.864609,1382.99681 255.565397,1382.99681 C258.079846,1382.99681 260.591105,1382.99681 263.105554,1381.73882 L263.105554,881.257987 L255.565397,880 C217.864609,880 182.67508,887.544729 150,902.634186 L150,1360.36262 Z" id="Shape" fill="#4547B6"></path>
                    <path d="M402.819487,755 C319.869088,755 252,822.950607 252,906.000639 L252,1358.99936 C252,1442.04939 319.869088,1510 402.819487,1510 C485.769886,1510 553.638975,1442.04939 553.638975,1358.99936 L553.638975,905.997444 C553.635783,822.947412 485.769886,755 402.819487,755 Z M1207.18051,755 C1124.23011,755 1056.36103,822.950607 1056.36103,906.000639 L1056.36103,1358.99936 C1056.36103,1442.04939 1124.23011,1510 1207.18051,1510 C1290.13091,1510 1358,1442.04939 1358,1358.99936 L1358,905.997444 C1358,822.947412 1290.13091,755 1207.18051,755 Z" id="Shape" fill="#E4E7E7"></path>
                    <path d="M552.938099,1358.99936 L552.938099,906.000639 C552.938099,822.950607 485.015635,755 402,755 L402,1509.99681 C485.018829,1509.99681 552.938099,1442.04939 552.938099,1358.99936 Z M1056.0619,906.000639 L1056.0619,1358.99936 C1056.0619,1442.04939 1123.98437,1510 1207,1510 L1207,755.003195 C1123.98117,755.003195 1056.0619,822.950607 1056.0619,906.000639 Z" id="Shape" fill="#ADAEEB"></path>
                </g>
            </g>
        </g>
    </g>
</svg>