<svg fill="#9833ce" xmlns="http://www.w3.org/2000/svg" xmlns:xlink="http://www.w3.org/1999/xlink" version="1.1" x="0px" y="0px" viewBox="0 0 100 100" style="enable-background:new 0 0 100 100;" xml:space="preserve"><path d="M90.2,54.5h0.5v-3.7c0-22.2-18.2-40.3-40.6-40.3S9.4,28.6,9.4,50.8v3.7h0.5C5.1,58,2,63.8,2,70.3  c0,10.6,8.1,19.2,18.1,19.2c1.2,0,2.3-1,2.3-2.3V53.4c0-1.2-1-2.3-2.3-2.3c-1.4,0-2.7,0.2-4,0.5v-0.8c0-18.5,15.2-33.5,33.9-33.5  s33.9,15,33.9,33.5v0.8c-1.2-0.3-2.6-0.5-3.9-0.5c-1.2,0-2.3,1-2.3,2.3v33.9c0,1.2,1,2.3,2.3,2.3c9.9,0,18.1-8.6,18.1-19.2  C98,63.8,94.8,58,90.2,54.5z"></path></svg>
