<svg fill="#FFFFFF" xmlns="http://www.w3.org/2000/svg" xmlns:xlink="http://www.w3.org/1999/xlink" viewBox="0 0 95 73" version="1.1" xml:space="preserve" style="" x="0px" y="0px" fill-rule="evenodd" clip-rule="evenodd" stroke-linejoin="round" stroke-miterlimit="1.41421"><circle cx="16.412" cy="6.345" r="6.346"></circle><circle cx="80.531" cy="7.069" r="6.346"></circle><path d="M21.612,30.679l-2.426,-2.286c-0.084,1.96 -0.297,3.202 -0.264,3.37c0.176,0.879 0.541,2.698 0.855,4.267c0.081,0.402 8.58,1.784 11.748,2.035c1.679,0.133 4.029,1.075 2.504,5.096c-1.803,4.756 -6.856,19.227 -8.711,24.431c-0.255,0.716 -1.043,1.126 -1.757,0.863c-0.826,-0.303 -1.296,-1.012 -1.127,-1.725c1.039,-4.35 4.406,-18.456 4.406,-18.456l2.186,-5.156c0,0 -3.78,0.348 -7.977,0.573c0.5,0.151 0.949,0.328 1.333,0.535c0.462,0.25 1.404,3.24 0,2.778c-1.411,-0.465 -3.606,-0.633 -5.953,-0.691c0.011,1.383 0.026,3.908 -0.008,5.242c0,0.012 0,0.023 -0.001,0.035c-0.004,0.142 -0.695,0.237 -1.549,0.277l0,13.813c2.136,0.535 6.594,1.693 7.587,2.289c0.975,0.584 -0.533,1.316 -0.904,1.291c-1.256,-0.086 -6.023,-1.321 -7.703,-1.764c-1.819,1.005 -7.349,4.034 -8.81,4.56c-0.424,0.152 -1.522,-0.839 -1.147,-1.09c1.108,-0.738 5.569,-3.344 8.041,-4.781c-1.09,-0.491 -2.171,-1.014 -2.575,-1.323c-0.308,-0.237 -0.589,-1.166 -0.183,-1.152c0.553,0.021 2.699,0.631 4.013,1.019l0,-12.854c-0.855,-0.032 -1.545,-0.125 -1.549,-0.285c-0.05,-1.618 -0.031,-3.996 -0.014,-5.301c-0.276,0.001 -0.548,0.001 -0.815,0.001c0.009,0.069 0.005,0.148 -0.017,0.238c-0.069,0.29 -0.315,0.377 -0.459,0.406c-0.216,0.024 -3.086,0.238 -4.134,0.061c-1.365,-0.231 -1.929,-1.08 -2.068,-1.251c-0.774,-0.952 -1.147,-4.411 -1.188,-4.829c-0.035,-0.367 -0.265,-3.653 -0.417,-5.85c-0.253,-0.071 -0.499,-0.162 -0.727,-0.269c-0.923,-0.428 0.551,-4.358 -1.787,-16.203c-0.29,-1.472 3.784,-1.899 4.226,-0.466c3.535,11.457 3.256,14.383 1.785,16.204c-0.548,0.679 -1.428,0.939 -2.336,0.914c0.14,2.075 0.32,4.883 0.388,5.557c0.057,0.57 0.35,4.092 1.334,4.681c0.129,0.077 0.254,0.218 0.569,0.329c-0.29,-0.665 -0.222,-2.494 0.21,-2.543c0.735,-0.083 2,-0.196 3.524,-0.278c-1.44,-1.505 -1.182,-5.274 -1.109,-5.718c0.277,-1.699 0.804,-4.336 0.881,-5.419c0.301,-4.2 -2.057,-10.389 -0.999,-14.105c0.849,-2.978 3.087,-3.93 4.379,-3.556c1.982,0.572 5.071,2.851 5.662,5.738c0.191,0.931 0.334,1.832 0.438,2.693l3.815,4.188l6.04,-10.041c0.101,-0.167 0.237,-0.298 0.394,-0.393l-0.002,-0.029l0.053,0c0.322,-0.174 0.72,-0.19 1.069,-0.015l0.029,0.015l3.668,0.003c-0.012,0.307 -0.025,0.56 -0.034,0.735c0.196,0.002 0.332,0.003 0.385,0.004c0.272,0.009 0.382,1.514 0,1.528c-0.358,0.015 -1.201,0.041 -2.129,0.058l0,12.002l24.405,0c0.001,-0.143 0.042,-0.317 0.133,-0.529c-0.005,-0.606 0.459,-1.113 1.063,-1.163l4.483,-0.371l0,-9.939c-0.928,-0.017 -1.772,-0.043 -2.13,-0.058c-0.382,-0.014 -0.271,-1.519 0,-1.528c0.054,-0.001 0.19,-0.002 0.386,-0.004c-0.009,-0.175 -0.022,-0.428 -0.034,-0.735l4.819,-0.003c-0.012,0.311 -0.026,0.567 -0.035,0.743c0.179,0 0.299,0 0.34,-0.001c0.31,-0.006 0.307,1.477 0,1.528c-0.365,0.062 -1.247,0.077 -2.209,0.072l0,9.831l7.332,-0.607c0,0 6.302,-7.827 6.492,-8.294c1.29,-3.162 3.913,-4.379 5.137,-4.788c0.451,-0.15 0.928,-0.211 1.403,-0.175c1.354,0.096 4.124,0.686 4.625,3.87c0.397,2.518 -2.682,12.005 -2.659,13.889c0.04,3.195 1.841,9.485 -0.456,10.6c1.313,0.079 2.395,0.178 3.053,0.252c0.455,0.051 0.507,2.08 0.16,2.64c0.676,-0.102 0.848,-0.33 1.026,-0.437c0.984,-0.589 1.277,-4.111 1.335,-4.682c0.068,-0.674 0.247,-3.482 0.388,-5.556c-0.908,0.025 -1.789,-0.235 -2.338,-0.915c-1.469,-1.821 -1.75,-4.747 1.787,-16.203c0.442,-1.433 4.515,-1.006 4.224,0.466c-2.337,11.845 -0.862,15.774 -1.785,16.203c-0.23,0.107 -0.475,0.197 -0.729,0.268c-0.152,2.197 -0.38,5.484 -0.417,5.85c-0.041,0.418 -0.412,3.878 -1.186,4.83c-0.139,0.171 -0.705,1.02 -2.069,1.25c-1.049,0.176 -3.917,-0.037 -4.133,-0.06c-0.146,-0.03 -0.391,-0.116 -0.46,-0.408c-0.021,-0.084 -0.025,-0.159 -0.019,-0.225c-0.394,0.001 -0.802,0 -1.219,-0.001c0.016,1.305 0.035,3.683 -0.014,5.301c-0.005,0.16 -0.695,0.253 -1.55,0.285l0,12.854c1.314,-0.388 3.461,-0.998 4.014,-1.019c0.405,-0.014 0.124,0.915 -0.184,1.152c-0.403,0.309 -1.484,0.832 -2.575,1.323c2.473,1.437 6.934,4.043 8.041,4.781c0.376,0.251 -0.722,1.242 -1.147,1.09c-1.462,-0.526 -6.99,-3.555 -8.81,-4.56c-1.68,0.443 -6.448,1.678 -7.704,1.764c-0.37,0.025 -1.878,-0.707 -0.903,-1.291c0.993,-0.596 5.451,-1.754 7.587,-2.289l0,-13.813c-0.854,-0.04 -1.545,-0.135 -1.549,-0.277c0,-0.012 0,-0.023 -0.001,-0.035c-0.033,-1.334 -0.019,-3.859 -0.008,-5.242c-2.347,0.058 -4.541,0.226 -5.952,0.691c-0.766,0.252 -0.834,-0.521 -0.664,-1.317c-3.852,0.761 -6.919,1.379 -6.919,1.379c0,0 -0.977,3.222 -1.619,4.947c-1.421,3.817 -5.565,13.392 -7.281,17.523c-0.282,0.676 -1.453,0.9 -1.926,0.733c-0.473,-0.166 -1.127,-1.002 -0.913,-1.731c1.557,-5.302 4.393,-18.279 7.308,-24.886c1.331,-3.015 8.144,-3.345 14.501,-5.068c-0.333,-0.637 -0.322,-1.139 0.033,-2.134c0.582,-1.634 1.355,-4.141 1.708,-5.222c0.116,-0.355 0.049,-2.801 0.035,-4.061l-3.242,3.512l0.502,0l0,1.423l-52.878,0l0,-1.423l0.754,0Zm8.818,-11.988l-6.484,11.988l7.172,0l0,-11.988c-0.236,0.001 -0.467,0.001 -0.688,0Zm-1.262,-3.881l4.912,0.003c-0.006,0.266 -0.012,0.524 -0.02,0.767l-4.874,-0.004c-0.007,-0.242 -0.012,-0.5 -0.018,-0.766Zm36.258,0l-4.911,0.003c0.005,0.266 0.011,0.524 0.018,0.767l4.875,-0.004c0.007,-0.242 0.013,-0.5 0.018,-0.766Zm-36.265,-1.525l4.926,0.003c0.001,0.15 0.001,0.671 0,0.78l-4.926,-0.004c-0.001,-0.108 -0.001,-0.629 0,-0.779Zm36.272,0l-4.925,0.003c-0.001,0.15 -0.001,0.671 -0.001,0.78l4.927,-0.004c0,-0.108 0,-0.629 -0.001,-0.779Zm-36.259,-0.745c0.014,-0.482 0.04,-0.932 0.084,-1.314c0.147,-1.307 1.258,-1.97 2.366,-1.965c1.108,-0.005 2.219,0.658 2.366,1.965c0.043,0.383 0.069,0.835 0.084,1.318l-4.9,-0.004Zm36.246,0c-0.013,-0.482 -0.041,-0.932 -0.083,-1.314c-0.147,-1.307 -1.259,-1.97 -2.367,-1.965c-1.107,-0.005 -2.219,0.658 -2.366,1.965c-0.043,0.383 -0.07,0.835 -0.083,1.318l4.899,-0.004Z"></path><path d="M29.168,14.81l4.912,0.003c-0.006,0.266 -0.012,0.524 -0.02,0.767l-4.874,-0.004c-0.007,-0.242 -0.012,-0.5 -0.018,-0.766Z"></path><path d="M29.161,13.285l4.926,0.003c0.001,0.15 0.001,0.671 0,0.78l-4.926,-0.004c-0.001,-0.108 -0.001,-0.629 0,-0.779Z"></path><path d="M29.174,12.54c0.014,-0.482 0.04,-0.932 0.084,-1.314c0.147,-1.307 1.258,-1.97 2.366,-1.965c1.108,-0.005 2.219,0.658 2.366,1.965c0.043,0.383 0.069,0.835 0.084,1.318l-4.9,-0.004Z"></path><path d="M65.426,14.81l-4.911,0.003c0.005,0.266 0.011,0.524 0.018,0.767l4.875,-0.004c0.007,-0.242 0.013,-0.5 0.018,-0.766Z"></path><path d="M65.433,13.285l-4.925,0.003c-0.001,0.15 -0.001,0.671 -0.001,0.78l4.927,-0.004c0,-0.108 0,-0.629 -0.001,-0.779Z"></path><path d="M65.42,12.54c-0.013,-0.482 -0.041,-0.932 -0.083,-1.314c-0.147,-1.307 -1.259,-1.97 -2.367,-1.965c-1.107,-0.005 -2.219,0.658 -2.366,1.965c-0.043,0.383 -0.07,0.835 -0.083,1.318l4.899,-0.004Z"></path><path d="M73.5,36.571c-0.037,0.126 -0.266,1.217 -0.266,1.217c-0.686,0.166 -7.893,1.699 -10.132,2.394c-1.178,0.365 -2.209,1.038 -2.574,1.322c-0.187,-0.751 -0.036,-1.668 0.96,-2.655c1.481,-1.468 6.726,-2.107 12.012,-2.278Z"></path><path d="M65.518,48.047l4.855,-0.856c0,0 5.827,18.176 5.837,18.231c-0.802,0.219 -2.759,0.811 -2.94,0.871l-8.274,-16.591c0,0 0.357,-1.125 0.522,-1.655Z"></path></svg>
