<?xml version="1.0" encoding="UTF-8"?>
<svg width="2188px" height="2188px" viewBox="0 0 2188 2188" version="1.1" xmlns="http://www.w3.org/2000/svg" xmlns:xlink="http://www.w3.org/1999/xlink">
    <!-- Generator: Sketch 51.3 (57544) - http://www.bohemiancoding.com/sketch -->
    <title>Group 4</title>
    <desc>Created with Sketch.</desc>
    <defs></defs>
    <g id="Page-1" stroke="none" stroke-width="1" fill="none" fill-rule="evenodd">
        <g id="Artboard-2" transform="translate(-11854.000000, -1347.000000)">
            <g id="Group-4" transform="translate(11854.000000, 1347.000000)">
                <g id="Group-3" fill="#E0E5FF">
                    <circle id="Oval-6" cx="1094" cy="1094" r="1094"></circle>
                </g>
                <g id="open-source" transform="translate(501.000000, 538.000000)" fill="#768AEE" fill-rule="nonzero">
                    <path d="M593.360036,7.38874726e-05 C265.721182,-0.0648309599 0.064924282,265.451628 1.13296071e-05,593.049573 C-0.0417184255,807.043173 115.195,1004.47213 301.560087,1109.68752 C307.25388,1112.96753 314.032647,1113.80666 320.354705,1112.01251 C326.632715,1110.26008 331.96485,1106.10153 335.191951,1100.4409 L518.183882,777.077996 C524.895418,765.195772 520.713169,750.12394 508.836417,743.401652 C425.483549,696.591349 395.864697,591.079247 442.683164,507.736787 C489.50163,424.394327 595.02459,394.779172 678.377457,441.591793 C761.730325,488.404415 791.349177,593.914198 744.530711,677.256658 C728.970149,704.959438 706.081378,727.843033 678.377457,743.401652 C666.500705,750.12394 662.318456,765.195772 669.029992,777.077996 L851.528121,1100.4409 C854.745949,1106.12007 860.080402,1110.29948 866.365367,1112.06119 C868.519086,1112.68474 870.74931,1113.00231 872.993443,1112.99999 C877.259152,1112.99535 881.450674,1111.88733 885.159985,1109.78488 C1170.51501,948.811586 1271.32946,587.018058 1110.33606,301.696349 C1005.10289,115.20386 807.514821,-0.106555505 593.360036,7.38874726e-05 Z" id="Shape"></path>
                </g>
            </g>
        </g>
    </g>
</svg>