<svg fill="#FFFFFF" xmlns="http://www.w3.org/2000/svg" xmlns:xlink="http://www.w3.org/1999/xlink" version="1.1" x="0px" y="0px" viewBox="0 0 164 164" enable-background="new 0 0 164 164" xml:space="preserve"><path fill-rule="evenodd" clip-rule="evenodd" d="M118.008,42.09c-0.043-1.146-0.121-2.26-0.218-3.356H94.699v-7.939h21.864  c-9.292-40.809-59.389-40.457-69.291,0h21.708v7.939H45.918c-0.106,1.032-0.196,2.08-0.254,3.155l0.002,6.689h23.315v7.939H45.668  l0.003,9.844h23.309V74.3H45.674l0.003,9.747l0.013,0.097h23.291v7.939H47.142c10.352,40.414,60.422,40.853,69.642,0H94.699v-7.939  h23.307l0.011-0.097l-0.003-9.747H94.699v-7.939h23.313l-0.002-9.844H94.699v-7.939h23.31L118.008,42.09L118.008,42.09z   M75.694,148.135l0.457-10.078c-34.406-3.059-48.557-35.046-47.963-63.491c0.248-6.87,12.408-6.807,12.158-0.457  c-2.779,70.606,86.156,72.015,82.763,1.35c-0.847-7.711,12.172-8.593,12.368-0.973c0.798,30.875-12.163,60.426-47.639,63.571  l0.598,10.078h15.882c4.804,0,4.81,15.865,0,15.865H59.365c-4.81,0-4.804-15.865,0-15.865H75.694z"></path></svg>